<?xml version="1.0" encoding="utf-8"?>
<!-- Generator: Adobe Illustrator 23.0.0, SVG Export Plug-In . SVG Version: 6.00 Build 0)  -->
<svg version="1.1" id="Capa_1" xmlns="http://www.w3.org/2000/svg" xmlns:xlink="http://www.w3.org/1999/xlink" x="0px" y="0px"
	 viewBox="0 0 304 229" style="enable-background:new 0 0 304 229;" xml:space="preserve">
<style type="text/css">
	.st0{fill:#CD693E;}
	.st1{fill:#D88E50;}
	.st2{fill:#8BB346;}
	.st3{fill:#EAC031;}
</style>
<g>
	<path class="st0" d="M114.38,120.98c0-2.77,0-5.22,0-8.06c-1.33,0-2.55,0.01-3.76,0c-2.87-0.02-3.52-0.58-3.54-3.51
		c-0.06-6.75-0.02-13.49-0.02-20.24c0-2.42,0.06-4.83,0-7.25c-0.05-2.32,1.02-3.39,3.31-3.32c0.58,0.02,1.17-0.01,1.75-0.02
		c0.33-0.01,0.71,0.08,0.99-0.05c2.89-1.35,0.87-3.91,1.39-5.86c0.29-1.11-0.04-2.02-1.61-2.16c-5.84-0.54-5.83-0.59-5.83-6.51
		c0.01-7.91,0-15.83,0-23.74c0-3.45,0.65-4.36,4.06-4.03c4.52,0.43,7.39-0.52,9.6-5.2c3.17-6.72,10.42-9.44,17.95-8.38
		c8.64,1.22,16.48,4.63,23.93,8.89c27.21,15.56,54.37,31.19,81.48,46.93c9.05,5.26,18.02,10.69,26.72,16.51
		c3.81,2.55,7.27,5.91,10.14,9.5c6.82,8.53,6.06,17.61-1.35,25.67c-6.63,7.21-14.73,12.38-23.1,17.21
		c-29.95,17.31-59.88,34.62-89.85,51.9c-6.99,4.03-14.14,7.77-21.97,9.97c-4.64,1.3-9.34,1.86-14.05,0.64
		c-5.37-1.39-9.01-4.98-11.07-9.98c-1.04-2.51-2.42-3.14-5.02-3.11c-7.49,0.11-7.52,1.2-7.48-7.33c0.04-7.58,0-15.16,0.02-22.74
		c0.01-3.77,0.47-4.16,4.11-4.3c1.08-0.04,2.99-0.3,3.06-0.72c0.33-1.84,0.17-3.78,0.06-5.68c-0.01-0.21-0.79-0.49-1.23-0.54
		c-0.82-0.09-1.66-0.03-2.5-0.04c-2.78-0.04-3.44-0.57-3.48-3.35c-0.08-5.66-0.04-11.33-0.05-16.99c0-3.5-0.03-7,0.02-10.5
		c0.04-3.03,0.66-3.6,3.72-3.62C111.94,120.97,113.08,120.98,114.38,120.98z M141.32,113.26c-0.09,0-0.18,0-0.28,0
		c0,11.58-0.04,23.15,0.02,34.73c0.03,6.08,0.2,12.14,2.22,18c2.3,6.65,6.41,9.56,13.37,9.03c4.99-0.38,9.55-2.23,13.83-4.69
		c21.34-12.24,42.72-24.41,63.9-36.91c5.24-3.09,10.2-6.9,14.59-11.12c5.69-5.46,5.68-12.02,0.12-17.65
		c-3.7-3.73-7.97-7.1-12.49-9.78c-19.89-11.76-39.96-23.22-59.98-34.76c-5.84-3.37-11.79-6.46-18.5-7.88
		c-6.13-1.3-11.6,0.97-13.93,6.78c-1.46,3.64-2.66,7.67-2.74,11.54C141.13,84.78,141.32,99.03,141.32,113.26z"/>
	<path class="st0" d="M38.3,53.36c0-4.66,0.06-9.33-0.03-13.99c-0.04-2.11,0.87-3.14,2.9-3.19c2.25-0.05,4.5-0.05,6.75,0
		c1.8,0.04,2.79,1.05,2.79,2.84c0.02,9.5,0.02,18.99,0,28.49c0,2-0.97,3.09-3.09,3.04c-2.16-0.05-4.33,0-6.5-0.01
		c-1.93-0.01-2.88-0.93-2.86-2.94c0.05-4.75,0.01-9.5,0.01-14.24C38.29,53.36,38.3,53.36,38.3,53.36z"/>
	<path class="st0" d="M38.29,179.54c0-4.57-0.02-9.14,0.01-13.71c0.02-2.75,0.61-3.32,3.41-3.37c1.99-0.04,3.99,0.01,5.98,0
		c1.93-0.01,3.01,0.94,3.02,2.85c0.03,9.56,0.04,19.12,0,28.67c-0.01,1.85-1.01,2.91-2.99,2.88c-2.16-0.03-4.32,0-6.48-0.01
		c-2.06,0-2.99-1.01-2.96-3.1C38.33,189.02,38.29,184.28,38.29,179.54z"/>
	<path class="st1" d="M55.49,138.19c0-4.58-0.03-9.15,0.01-13.73c0.02-2.71,0.71-3.37,3.42-3.4c2-0.02,3.99,0,5.99,0
		c1.85,0,2.81,0.97,2.81,2.76c0.04,9.57,0.05,19.13,0.04,28.7c0,1.89-1.25,2.65-2.93,2.72c-2.08,0.09-4.16,0.08-6.24,0.01
		c-2.09-0.07-3.14-1.16-3.12-3.33C55.52,147.34,55.49,142.77,55.49,138.19z"/>
	<path class="st1" d="M55.49,179.37c0-4.5,0.04-9-0.01-13.49c-0.02-2.19,0.97-3.25,3.14-3.25c2.08,0,4.16-0.02,6.25,0
		c1.77,0.02,2.87,0.83,2.87,2.7c0.02,9.49,0.04,18.99,0.01,28.48c-0.01,2.03-1.14,2.99-3.2,2.94c-1.91-0.05-3.83-0.03-5.75,0.01
		c-2.34,0.05-3.31-1.18-3.31-3.4C55.49,188.7,55.48,184.04,55.49,179.37z"/>
	<path class="st1" d="M55.48,53.46c0-4.57,0.04-9.15-0.01-13.72c-0.02-2.3,1-3.38,3.3-3.32c1.99,0.05,3.99,0.04,5.99,0.01
		c1.95-0.03,2.99,0.91,2.99,2.84c0.01,9.48-0.01,18.96-0.02,28.44c0,1.88-1.05,2.67-2.86,2.65c-2.08-0.02-4.16-0.01-6.24,0.01
		c-2.18,0.03-3.18-1.02-3.16-3.2C55.51,62.61,55.48,58.03,55.48,53.46z"/>
	<path class="st2" d="M102.14,95.95c0,4.08,0,8.16,0,12.25c0,3.27-0.71,4.07-3.96,4.49c-0.33,0.04-0.67,0.02-1,0.03
		c-6.25,0.14-6.47,0.16-6.79-5.98c-0.32-5.97-0.13-11.96-0.18-17.94c-0.02-2.08-0.15-4.15-0.11-6.23c0.05-2.64,0.88-3.43,3.46-3.47
		c1.75-0.03,3.5,0.03,5.25,0c2.32-0.05,3.34,1.13,3.34,3.37C102.13,86.95,102.14,91.45,102.14,95.95z"/>
	<path class="st2" d="M102.14,138.16c0,4.5-0.05,9,0.02,13.49c0.04,2.25-1.05,3.21-3.16,3.24c-1.92,0.03-3.83-0.02-5.75,0.02
		c-2.14,0.04-3-1.09-3-3.1c0.01-9.23,0.01-18.46,0.02-27.69c0-1.94,1.04-2.91,2.95-2.93c1.81-0.03,3.62-0.03,5.43,0
		c2.55,0.04,3.44,0.9,3.47,3.48C102.17,129.16,102.14,133.66,102.14,138.16z"/>
	<path class="st2" d="M102.14,179.69c0,4.33,0.02,8.65-0.01,12.98c-0.02,2.92-0.76,3.66-3.71,3.72c-1.41,0.03-2.83,0-4.24-0.02
		c-3.15-0.03-4.01-0.61-4.04-3.69c-0.09-7.64,0.03-15.28,0.08-22.92c0.01-1.41-0.22-2.89,0.14-4.21c0.28-1.01,1.26-2.53,2.02-2.58
		c2.44-0.17,4.93,0.25,7.4,0.42c1.97,0.13,2.4,1.39,2.39,3.08C102.13,170.87,102.14,175.28,102.14,179.69z"/>
	<path class="st3" d="M84.85,138.12c0,4.5,0.03,9-0.01,13.49c-0.03,2.82-0.87,3.56-3.62,3.45c-1.83-0.07-3.66-0.11-5.49-0.16
		c-1.81-0.04-2.79-0.88-2.79-2.76c0-9.41,0-18.82,0-28.23c0-1.88,1.07-2.7,2.83-2.75c1.58-0.04,3.16-0.03,4.75-0.03
		c3.95,0.01,4.35,0.4,4.35,4.24c0,4.25,0,8.5,0,12.74C84.86,138.12,84.86,138.12,84.85,138.12z"/>
	<path class="st3" d="M84.86,95.77c0,4.25,0.02,8.5,0,12.74c-0.02,3.72-0.52,4.22-4.15,4.23c-1.58,0.01-3.16-0.02-4.75-0.01
		c-1.95,0.01-3.01-0.99-3.01-2.88c-0.03-9.41-0.01-18.82,0.01-28.23c0-1.73,0.91-2.59,2.66-2.58c2.08,0.02,4.17,0.09,6.24-0.02
		c2.2-0.11,3,0.97,2.99,2.99c-0.02,4.58-0.01,9.16-0.01,13.74C84.85,95.77,84.85,95.77,84.86,95.77z"/>
	<path class="st3" d="M72.91,53.45c0-4.33-0.02-8.66,0.01-13c0.02-3.19,0.67-3.88,3.76-3.92c9.45-0.11,8.1-0.26,8.18,7.97
		c0.06,7,0.02,14,0,20.99c-0.01,4.45-0.34,4.76-4.89,4.79c-1.25,0.01-2.5-0.05-3.75,0c-2.35,0.09-3.32-1.07-3.3-3.34
		c0.03-4.5,0.01-9,0.01-13.5C72.92,53.45,72.92,53.45,72.91,53.45z"/>
	<path class="st3" d="M72.93,179.68c0-4.5,0.05-9-0.02-13.5c-0.04-2.32,0.9-3.37,3.27-3.26c1.91,0.09,3.83-0.01,5.74-0.08
		c1.84-0.07,2.89,0.73,2.89,2.61c0.02,9.33,0.03,18.66,0.01,27.99c0,1.99-0.99,3.1-3.1,3.05c-1.99-0.05-3.98,0-5.98-0.04
		c-1.96-0.03-2.83-1.09-2.82-3.02C72.95,188.85,72.93,184.27,72.93,179.68z"/>
	<path class="st2" d="M102.14,53.71c0,4.16,0.01,8.32,0,12.48c-0.01,3.33-0.33,3.66-3.76,3.72c-1.58,0.03-3.16,0.03-4.74,0
		c-2.91-0.06-3.4-0.6-3.37-3.6c0.05-5.73,0.1-11.46,0.11-17.19c0-3.24-0.2-6.49-0.04-9.73c0.05-0.88,1.07-2.43,1.68-2.44
		c2.78-0.07,5.59,0.21,8.37,0.52c1.34,0.15,1.81,1.1,1.79,2.51C102.09,44.55,102.14,49.13,102.14,53.71z"/>
</g>
</svg>
